<svg width="171" height="81" viewBox="0 0 171 81" fill="none" xmlns="http://www.w3.org/2000/svg">
<path d="M11.1273 31.6C10.5273 31.6 10.094 31.3 9.82734 30.7C9.62734 30.0333 9.52734 29.5667 9.52734 29.3C9.52734 28.2333 9.82734 27.2333 10.4273 26.3C11.094 25.3 11.8273 24.7667 12.6273 24.7H12.9273C13.7273 24.7 14.2607 24.9 14.5273 25.3C14.8607 25.6333 15.0273 26.0667 15.0273 26.6C15.0273 27.6 14.594 28.7 13.7273 29.9C12.8607 31.0333 11.994 31.6 11.1273 31.6ZM6.02734 67.4C3.76068 67.4 2.22734 66.5333 1.42734 64.8C0.627344 63.0667 0.227344 61.0667 0.227344 58.8C0.227344 56.5333 0.460677 54.1667 0.927344 51.7C1.46068 49.1667 2.02734 46.8667 2.62734 44.8C3.29401 42.7333 3.79401 41.2667 4.12734 40.4C4.86068 38.8667 5.59401 37.5667 6.32734 36.5C7.06068 35.3667 7.86068 34.8 8.72734 34.8C9.32734 34.8 9.76068 35.0333 10.0273 35.5C10.3607 35.9 10.5273 36.4333 10.5273 37.1C10.5273 38.4333 10.1607 39.8 9.42734 41.2C8.69401 42.5333 8.02734 43.8 7.42734 45C6.09401 47.7333 5.02734 50.1667 4.22734 52.3C3.49401 54.4333 3.12734 57.1 3.12734 60.3C3.12734 62.3667 3.32734 63.8667 3.72734 64.8C4.19401 65.7333 4.82734 66.2 5.62734 66.2C6.69401 66.2 7.92734 65.6 9.32734 64.4C10.7273 63.1333 12.1607 61.4667 13.6273 59.4C15.094 57.3333 16.394 55.1 17.5273 52.7C18.2607 51.1667 18.8273 50.4 19.2273 50.4C19.494 50.4 19.6273 50.6667 19.6273 51.2C19.6273 51.9333 19.3273 53 18.7273 54.4C18.194 55.7333 17.5273 57.1 16.7273 58.5C15.994 59.9 15.294 61 14.6273 61.8C13.494 63.2667 12.194 64.5667 10.7273 65.7C9.26068 66.8333 7.69401 67.4 6.02734 67.4ZM35.7336 81C35.0669 81 34.3669 80.5667 33.6336 79.7C32.9669 78.9 32.3336 77.7667 31.7336 76.3C30.7336 73.9 30.0336 71.3667 29.6336 68.7C29.2336 66.1 29.0336 63.4667 29.0336 60.8C29.0336 57.8667 29.2336 55 29.6336 52.2C30.0336 49.4 30.4669 46.8667 30.9336 44.6C31.2669 43 31.6669 41.3 32.1336 39.5C32.6003 37.7 33.0336 36.2667 33.4336 35.2C33.0336 35.2667 32.4003 35.5 31.5336 35.9C30.6669 36.3 29.7669 36.7 28.8336 37.1C27.9669 37.5 27.2003 37.7 26.5336 37.7C25.5336 37.7 25.0336 37.1333 25.0336 36C25.0336 35.4 25.2336 34.8667 25.6336 34.4C26.1003 33.9333 26.6669 33.5667 27.3336 33.3C28.6669 32.7 30.1336 32.2667 31.7336 32C33.3336 31.6667 34.4003 31.3333 34.9336 31L37.5336 24.4C37.8003 23.7333 38.2669 22.6667 38.9336 21.2C39.6669 19.6667 40.5003 18.0333 41.4336 16.3C42.4336 14.5667 43.4003 13 44.3336 11.6C45.0669 10.5333 45.7669 9.7 46.4336 9.1C47.1003 8.43333 47.8336 8.1 48.6336 8.1C49.8336 8.1 50.4336 8.56667 50.4336 9.5C50.4336 10.0333 50.2003 10.8333 49.7336 11.9C49.3336 12.9667 48.5669 14.3667 47.4336 16.1C46.1669 18.1 44.8669 20.1 43.5336 22.1C42.2669 24.0333 41.1669 26.0667 40.2336 28.2C40.1669 28.4667 40.0003 28.9 39.7336 29.5C39.5336 30.0333 39.3669 30.3667 39.2336 30.5L41.2336 30.2C41.7669 30.1333 42.3669 30.1 43.0336 30.1C43.7003 30.0333 44.4336 30 45.2336 30C46.3669 30 47.4336 30.0667 48.4336 30.2C49.5003 30.2667 50.3669 30.4333 51.0336 30.7C51.3669 30.8333 51.6669 31 51.9336 31.2C52.2669 31.3333 52.4336 31.4667 52.4336 31.6C52.4336 31.8667 51.5669 32 49.8336 32C48.8336 32 47.4003 32.1667 45.5336 32.5C43.7336 32.8333 41.6669 33.3667 39.3336 34.1C38.2003 34.4333 37.4336 34.9 37.0336 35.5C36.6336 36.1 36.1003 37.5333 35.4336 39.8C34.4336 43.4 33.6336 46.8667 33.0336 50.2C32.4336 53.4667 31.9669 56.8 31.6336 60.2C31.5669 60.8667 31.5003 61.5667 31.4336 62.3C31.4336 63.0333 31.4336 63.8333 31.4336 64.7C31.4336 66.9667 31.6336 69.3333 32.0336 71.8C32.5003 74.2667 33.1669 76.4 34.0336 78.2C34.2336 78.6 34.4336 78.9667 34.6336 79.3C34.9003 79.6333 35.2003 79.8667 35.5336 80C36.0003 80.2 36.2336 80.4333 36.2336 80.7C36.2336 80.9 36.0669 81 35.7336 81ZM57.3305 64.2C56.1305 64.2 55.2638 63.7 54.7305 62.7C54.1971 61.6333 53.9305 60.4 53.9305 59C53.9305 57.2 54.2305 55.1 54.8305 52.7C55.4971 50.3 56.3638 47.8333 57.4305 45.3C58.4971 42.7 59.6971 40.3333 61.0305 38.2C62.4305 36 63.8971 34.2333 65.4305 32.9C66.9638 31.5 68.4638 30.8 69.9305 30.8C71.2638 30.8 72.3971 31.4 73.3305 32.6C74.3305 33.7333 74.8305 35.0333 74.8305 36.5C74.8305 37.3667 74.6971 38.1 74.4305 38.7C74.1638 39.2333 73.8638 39.5 73.5305 39.5C73.2638 39.5 73.0305 39.3 72.8305 38.9C72.1638 37.3667 71.4305 36.2667 70.6305 35.6C69.8971 34.9333 69.1305 34.6 68.3305 34.6C66.9971 34.6 65.6638 35.3667 64.3305 36.9C63.0638 38.3667 62.0305 40.0667 61.2305 42C60.5638 43.4667 59.9305 45.2333 59.3305 47.3C58.7971 49.3 58.3305 51.3 57.9305 53.3C57.5971 55.2333 57.4305 56.8333 57.4305 58.1C57.4305 60.3667 57.9638 61.5 59.0305 61.5C60.3638 61.5 62.0638 60.0333 64.1305 57.1C65.6638 54.9667 67.0305 52.5 68.2305 49.7C69.4971 46.9 70.5638 44.4667 71.4305 42.4C71.7638 41.7333 72.1305 41.3 72.5305 41.1C72.9305 40.9 73.2971 40.8 73.6305 40.8C74.4305 40.8 74.9305 41.1333 75.1305 41.8C75.3971 42.4667 75.5305 43.0333 75.5305 43.5C75.5305 45.2333 75.3638 46.8 75.0305 48.2C74.6971 49.5333 74.5305 51.1667 74.5305 53.1C74.5305 54.5 74.6305 55.8 74.8305 57C75.0971 58.1333 75.5305 58.7 76.1305 58.7C76.8638 58.7 77.7971 57.7667 78.9305 55.9C79.1971 55.3667 79.5971 55.1 80.1305 55.1C80.7305 55.1 81.0305 55.4 81.0305 56C81.0305 56.8667 80.4305 57.8 79.2305 58.8C78.0305 59.7333 76.8305 60.2 75.6305 60.2C74.0305 60.2 72.8971 59.5333 72.2305 58.2C71.0971 56 70.5305 54.0333 70.5305 52.3C70.5305 50.5 70.4971 49.2667 70.4305 48.6C70.0971 49.4 69.4638 50.6667 68.5305 52.4C67.5971 54.0667 66.4971 55.8333 65.2305 57.7C63.9638 59.5 62.6305 61.0333 61.2305 62.3C59.8305 63.5667 58.5305 64.2 57.3305 64.2ZM105.4 80.9C104.533 80.9 103.7 80.5667 102.9 79.9C102.167 79.2333 101.533 78.5667 101 77.9C98.8667 75.4333 97.0667 72.1667 95.6 68.1C94.2 64.0333 93.1333 59.5667 92.4 54.7C91.6667 49.7667 91.3 44.7667 91.3 39.7C91.3 34.9667 91.6 30.3667 92.2 25.9C92.8667 21.4333 93.8667 17.3667 95.2 13.7C96.5333 10.0333 98.2 7.1 100.2 4.9C102.8 1.96666 105.3 0.499996 107.7 0.499996C109.167 0.499996 110.333 1.16666 111.2 2.5C112.133 3.76667 112.6 5.8 112.6 8.6C112.6 11.2667 112.067 14.6667 111 18.8C110 22.8667 108.267 27.7333 105.8 33.4C104.933 35.2667 104 37.1333 103 39C102.067 40.8667 101.067 42.8333 100 44.9C99.6 45.7 99.2667 46.1 99 46.1C98.8667 46.1 98.8 45.9667 98.8 45.7C98.8 45.1667 99.0333 44.4667 99.5 43.6C105.567 32.2 108.6 20.8667 108.6 9.6C108.6 5.13333 107.667 2.89999 105.8 2.89999C104.467 2.89999 102.9 4.2 101.1 6.8C98.6333 10.4667 96.9333 14.8333 96 19.9C95.0667 24.9 94.6 29.9667 94.6 35.1C94.6 38.9667 94.7667 42.7333 95.1 46.4C95.4333 50 95.8333 53.2667 96.3 56.2C96.5 57.4667 96.8 59.1667 97.2 61.3C97.6 63.4333 98.1333 65.6667 98.8 68C99.4667 70.4 100.2 72.5667 101 74.5C101.867 76.5 102.8 77.9333 103.8 78.8C104.067 79 104.333 79.2 104.6 79.4C104.933 79.6667 105.3 79.8333 105.7 79.9C106.3 79.9 106.6 80.0667 106.6 80.4C106.6 80.7333 106.2 80.9 105.4 80.9ZM127.397 31.6C126.797 31.6 126.364 31.3 126.097 30.7C125.897 30.0333 125.797 29.5667 125.797 29.3C125.797 28.2333 126.097 27.2333 126.697 26.3C127.364 25.3 128.097 24.7667 128.897 24.7H129.197C129.997 24.7 130.53 24.9 130.797 25.3C131.13 25.6333 131.297 26.0667 131.297 26.6C131.297 27.6 130.864 28.7 129.997 29.9C129.13 31.0333 128.264 31.6 127.397 31.6ZM122.297 67.4C120.03 67.4 118.497 66.5333 117.697 64.8C116.897 63.0667 116.497 61.0667 116.497 58.8C116.497 56.5333 116.73 54.1667 117.197 51.7C117.73 49.1667 118.297 46.8667 118.897 44.8C119.564 42.7333 120.064 41.2667 120.397 40.4C121.13 38.8667 121.864 37.5667 122.597 36.5C123.33 35.3667 124.13 34.8 124.997 34.8C125.597 34.8 126.03 35.0333 126.297 35.5C126.63 35.9 126.797 36.4333 126.797 37.1C126.797 38.4333 126.43 39.8 125.697 41.2C124.964 42.5333 124.297 43.8 123.697 45C122.364 47.7333 121.297 50.1667 120.497 52.3C119.764 54.4333 119.397 57.1 119.397 60.3C119.397 62.3667 119.597 63.8667 119.997 64.8C120.464 65.7333 121.097 66.2 121.897 66.2C122.964 66.2 124.197 65.6 125.597 64.4C126.997 63.1333 128.43 61.4667 129.897 59.4C131.364 57.3333 132.664 55.1 133.797 52.7C134.53 51.1667 135.097 50.4 135.497 50.4C135.764 50.4 135.897 50.6667 135.897 51.2C135.897 51.9333 135.597 53 134.997 54.4C134.464 55.7333 133.797 57.1 132.997 58.5C132.264 59.9 131.564 61 130.897 61.8C129.764 63.2667 128.464 64.5667 126.997 65.7C125.53 66.8333 123.964 67.4 122.297 67.4ZM146.803 64.2C145.603 64.2 144.736 63.7 144.203 62.7C143.67 61.6333 143.403 60.4 143.403 59C143.403 57.2 143.703 55.1 144.303 52.7C144.97 50.3 145.836 47.8333 146.903 45.3C147.97 42.7 149.17 40.3333 150.503 38.2C151.903 36 153.37 34.2333 154.903 32.9C156.436 31.5 157.936 30.8 159.403 30.8C160.736 30.8 161.87 31.4 162.803 32.6C163.803 33.7333 164.303 35.0333 164.303 36.5C164.303 37.3667 164.17 38.1 163.903 38.7C163.636 39.2333 163.336 39.5 163.003 39.5C162.736 39.5 162.503 39.3 162.303 38.9C161.636 37.3667 160.903 36.2667 160.103 35.6C159.37 34.9333 158.603 34.6 157.803 34.6C156.47 34.6 155.136 35.3667 153.803 36.9C152.536 38.3667 151.503 40.0667 150.703 42C150.036 43.4667 149.403 45.2333 148.803 47.3C148.27 49.3 147.803 51.3 147.403 53.3C147.07 55.2333 146.903 56.8333 146.903 58.1C146.903 60.3667 147.436 61.5 148.503 61.5C149.836 61.5 151.536 60.0333 153.603 57.1C155.136 54.9667 156.503 52.5 157.703 49.7C158.97 46.9 160.036 44.4667 160.903 42.4C161.236 41.7333 161.603 41.3 162.003 41.1C162.403 40.9 162.77 40.8 163.103 40.8C163.903 40.8 164.403 41.1333 164.603 41.8C164.87 42.4667 165.003 43.0333 165.003 43.5C165.003 45.2333 164.836 46.8 164.503 48.2C164.17 49.5333 164.003 51.1667 164.003 53.1C164.003 54.5 164.103 55.8 164.303 57C164.57 58.1333 165.003 58.7 165.603 58.7C166.336 58.7 167.27 57.7667 168.403 55.9C168.67 55.3667 169.07 55.1 169.603 55.1C170.203 55.1 170.503 55.4 170.503 56C170.503 56.8667 169.903 57.8 168.703 58.8C167.503 59.7333 166.303 60.2 165.103 60.2C163.503 60.2 162.37 59.5333 161.703 58.2C160.57 56 160.003 54.0333 160.003 52.3C160.003 50.5 159.97 49.2667 159.903 48.6C159.57 49.4 158.936 50.6667 158.003 52.4C157.07 54.0667 155.97 55.8333 154.703 57.7C153.436 59.5 152.103 61.0333 150.703 62.3C149.303 63.5667 148.003 64.2 146.803 64.2Z" fill="white"/>
</svg>
